<?xml version="1.0" standalone="no"?>
<!DOCTYPE svg PUBLIC "-//W3C//DTD SVG 20010904//EN"
 "http://www.w3.org/TR/2001/REC-SVG-20010904/DTD/svg10.dtd">
<svg version="1.0" xmlns="http://www.w3.org/2000/svg"
 width="519.000000pt" height="481.000000pt" viewBox="0 0 519.000000 481.000000"
 preserveAspectRatio="xMidYMid meet">

<g transform="translate(0.000000,481.000000) scale(0.100000,-0.100000)"
fill="#000000" stroke="none">
<path d="M2700 4801 c0 -18 15 -19 40 -5 l25 13 -32 1 c-18 0 -33 -4 -33 -9z"/>
<path d="M2841 4789 c15 -15 19 -28 15 -47 -4 -15 -8 -36 -9 -47 -1 -11 -12
-21 -27 -25 -23 -6 -24 -6 -5 -14 11 -4 56 -10 100 -12 69 -4 77 -2 54 8 -37
19 -74 50 -82 70 -9 24 20 53 38 38 11 -9 18 -5 30 14 9 14 24 27 33 29 9 3
-25 5 -75 6 l-93 1 21 -21z"/>
<path d="M3115 4780 c23 -45 18 -68 -22 -106 -20 -19 -34 -36 -32 -37 12 -10
92 -27 123 -27 36 0 36 0 36 -44 0 -53 38 -146 51 -125 5 8 9 24 9 36 0 16 5
20 20 16 15 -4 20 -14 20 -37 0 -17 3 -40 6 -51 4 -15 -3 -24 -28 -38 -41 -22
-77 -73 -85 -121 -6 -39 11 -92 33 -100 14 -5 13 -50 -1 -64 -3 -3 -38 3 -78
13 -66 18 -102 19 -447 15 -206 -2 -410 -5 -452 -5 -74 0 -78 -1 -83 -25 -3
-14 -3 -259 0 -545 2 -286 2 -530 -1 -542 l-6 -23 -1089 0 -1089 0 0 -870 0
-870 1409 0 c1275 0 1409 1 1415 16 3 9 6 180 6 380 l0 364 140 0 140 0 2
-352 c1 -194 1 -381 0 -415 -3 -58 -2 -63 17 -63 29 0 29 -50 1 -68 -20 -12
-20 -23 -20 -552 l0 -540 1040 0 1040 0 -2 307 -3 308 -142 34 c-79 19 -143
38 -143 43 0 4 7 8 15 8 8 0 15 6 15 14 0 9 -18 15 -51 19 -57 7 -70 14 -50
26 21 13 104 1 133 -20 18 -12 44 -19 77 -19 92 0 112 24 29 35 -29 4 -62 14
-73 21 -11 8 -27 14 -37 14 -23 0 -23 18 0 48 l18 24 16 -41 c16 -40 18 -41
62 -41 54 0 62 2 58 13 -1 5 -5 30 -7 55 l-5 47 21 -57 c12 -34 27 -58 35 -58
22 0 16 -38 -9 -64 l-24 -24 34 -10 c32 -10 48 0 18 12 -8 3 -15 10 -15 16 0
5 7 10 15 10 12 0 15 18 15 105 l0 105 -45 -2 c-34 -1 -45 -5 -45 -17 -1 -13
-2 -13 -11 2 -22 37 -8 51 49 48 l52 -2 0 85 c0 92 0 93 -55 78 -21 -6 -40 -4
-65 7 l-35 15 28 4 c32 4 32 4 11 66 -13 39 -23 51 -51 63 -24 10 -33 19 -29
29 3 9 6 30 6 47 1 19 11 45 25 62 l24 29 10 -27 c15 -40 62 -84 99 -92 31 -6
32 -5 32 24 0 18 -7 34 -17 40 -17 10 -17 12 0 25 14 11 17 30 17 114 l0 101
-47 3 c-45 3 -48 5 -51 33 -1 17 -10 59 -19 95 -28 110 -127 190 -236 190 -91
0 -196 -71 -237 -161 -14 -30 -31 -59 -39 -65 -8 -6 -15 -38 -18 -80 l-5 -70
-237 -14 c-358 -20 -338 -21 -399 23 -44 33 -50 42 -42 57 6 10 10 81 10 157
0 76 4 143 8 149 4 6 45 17 92 24 47 7 110 16 140 20 30 5 187 9 348 9 l292 1
0 25 c0 21 5 25 33 27 17 1 41 3 52 4 11 1 29 3 40 4 18 1 18 2 -4 11 -13 5
-35 8 -50 7 -22 -3 -26 0 -23 22 6 54 12 69 26 64 8 -3 27 1 43 10 29 16 28
16 -27 20 -24 2 -23 32 3 61 24 28 47 28 47 -1 0 -11 -6 -13 -22 -9 -17 6 -20
4 -15 -10 4 -9 7 -22 7 -28 0 -9 2 -9 8 0 6 9 12 7 25 -7 9 -11 12 -20 7 -20
-26 0 -6 -29 30 -43 44 -17 56 -7 14 12 -22 10 -24 14 -13 27 11 14 10 19 -10
35 -13 11 -20 19 -16 19 4 0 38 -25 76 -55 37 -30 72 -55 77 -55 5 0 17 -9 27
-20 18 -20 17 -20 -14 -20 -25 0 -36 6 -49 30 -9 16 -21 28 -27 27 -15 -5 -12
-20 10 -47 19 -24 25 -25 103 -22 l82 4 0 139 0 139 -155 0 c-152 0 -156 -1
-164 -22 -16 -40 -114 -173 -119 -160 -2 7 7 27 20 45 36 47 39 63 17 83 -10
9 -19 25 -19 36 0 10 -4 18 -10 18 -6 0 -10 35 -10 84 0 112 -8 148 -30 141
-28 -9 -124 21 -223 69 -51 24 -116 52 -146 62 -30 9 -75 30 -100 45 -25 16
-51 29 -58 29 -7 0 -29 9 -50 19 -21 11 -55 23 -76 27 -35 6 -38 9 -32 33 3
16 -2 37 -13 56 -17 28 -22 30 -83 30 -49 0 -69 5 -86 20 -36 31 -29 45 21 45
25 0 57 5 72 10 26 10 26 11 8 32 -34 37 -96 78 -121 78 -39 0 -93 49 -121
109 -41 89 -39 30 3 -73 20 -49 34 -91 31 -93 -2 -2 -21 0 -43 6 -61 17 -230
26 -217 12 6 -7 9 -23 6 -37 -4 -22 -9 -24 -55 -24 l-51 0 22 -20 c27 -26 28
-50 2 -50 -13 0 -18 -5 -14 -15 4 -8 1 -15 -5 -15 -20 0 -11 -20 14 -32 31
-14 33 -38 3 -38 l-21 0 23 -25 c13 -14 29 -25 35 -25 6 0 20 -7 31 -16 18
-15 18 -15 -8 -9 -16 3 -28 1 -28 -5 0 -5 6 -11 13 -11 23 -3 -88 -17 -138
-18 -57 -1 -84 15 -58 34 14 11 14 14 -2 38 -21 33 -105 75 -166 83 -35 5 -57
1 -92 -14 l-47 -21 -15 22 c-8 12 -15 32 -15 44 0 19 -5 23 -30 23 -16 0 -38
-8 -48 -18 -15 -15 -22 -17 -35 -7 -28 20 -20 51 18 75 19 12 35 23 35 26 0 2
-15 33 -32 70 -31 62 -32 66 -15 79 9 7 34 15 55 18 20 3 102 16 181 28 l143
22 14 34 c13 31 84 93 107 93 5 0 44 15 86 34 42 19 93 38 114 41 l38 7 -17
-38 c-37 -88 -47 -114 -41 -120 3 -3 30 -1 60 6 l55 11 5 52 c16 160 24 197
46 197 16 0 -1 44 -26 69 -14 13 -22 30 -19 38 8 20 -9 41 -71 95 -71 60 -100
106 -108 171 -6 45 -4 55 10 61 9 3 20 4 25 1 11 -7 42 43 35 55 -10 16 -55
12 -49 -4 6 -16 -36 -30 -49 -17 -13 13 0 30 30 42 32 12 19 32 -18 27 l-29
-5 4 61 c6 78 38 141 80 156 21 7 32 7 34 0 2 -6 11 -17 19 -25 10 -10 13 -25
9 -40 -6 -24 -4 -25 36 -26 24 -1 51 0 62 1 26 2 12 -15 -24 -30 -19 -8 -32
-22 -36 -39 -3 -14 -8 -33 -11 -41 -11 -28 -8 -105 4 -137 7 -18 10 -40 6 -50
-9 -26 -44 -63 -60 -63 -7 0 -13 -6 -13 -14 0 -16 28 -41 37 -33 3 4 19 -1 34
-10 16 -9 32 -13 36 -9 4 4 0 12 -10 17 -27 15 -20 26 21 32 20 3 48 9 62 13
21 6 23 4 13 -7 -20 -20 -15 -29 15 -29 26 -1 26 -2 -23 -45 -45 -41 -47 -45
-25 -45 14 0 42 9 63 20 l39 21 -7 -23 c-11 -34 -34 -56 -67 -63 -26 -6 -29
-11 -26 -38 3 -32 3 -32 68 -35 82 -4 88 -6 92 -34 5 -34 23 -28 58 20 17 24
36 41 43 39 14 -4 11 -84 -4 -124 -5 -13 -9 -33 -9 -43 0 -16 4 -17 32 -9 17
5 36 14 42 20 8 9 5 9 -11 0 -29 -15 -34 -14 -25 7 20 48 49 83 76 90 18 5 30
15 32 27 5 26 -16 78 -34 89 -11 6 -11 10 -3 16 9 5 9 16 -2 46 -8 21 -20 58
-26 82 -7 24 -17 45 -24 48 -16 6 -14 98 3 118 7 9 20 16 29 16 14 0 14 2 1
11 -10 7 -11 12 -4 15 6 3 9 16 6 29 -5 29 3 32 25 9 12 -12 13 -20 5 -37 -6
-12 -14 -33 -17 -46 l-7 -24 88 7 c49 3 166 9 259 12 94 4 173 8 176 10 9 5
28 120 28 169 0 22 -7 51 -16 64 -15 24 -16 24 -142 17 -177 -10 -212 -14
-226 -26 -7 -6 -34 -12 -61 -14 -74 -6 -71 -24 10 -57 l39 -16 -44 -7 c-28 -4
-50 -15 -61 -29 l-18 -22 0 26 c0 14 -11 40 -25 59 -29 39 -29 41 -12 37 6 -1
12 5 12 13 0 25 -40 18 -43 -8 -3 -17 -8 -21 -23 -17 -13 4 -19 2 -19 -8 0
-17 28 -42 58 -51 25 -8 29 -21 7 -30 -8 -3 -15 -13 -15 -21 0 -9 -4 -13 -10
-10 -6 4 -10 -7 -10 -27 0 -19 -7 -44 -16 -57 -13 -18 -14 -25 -4 -31 7 -5 10
-15 6 -25 -5 -14 -9 -15 -21 -5 -8 7 -15 21 -15 31 0 11 -6 19 -12 19 -7 0
-22 13 -32 29 -22 32 -39 31 -68 -4 -22 -25 -22 -42 -3 -61 33 -34 4 -147 -35
-137 -18 5 -18 8 -11 67 0 5 4 6 8 3 11 -12 35 32 28 54 -5 16 -14 19 -38 17
-22 -2 -39 4 -61 25 -74 67 -76 70 -65 84 9 10 8 13 -2 14 -8 0 -5 4 6 9 28
12 37 12 30 0 -11 -18 35 -11 77 13 85 46 96 69 37 81 -49 10 -82 46 -42 46
31 0 133 -88 133 -115 0 -22 25 -36 38 -23 17 17 15 53 -4 69 -18 15 -35 53
-40 89 -2 13 -11 30 -20 37 -17 12 -17 13 -1 13 10 0 36 -9 58 -21 81 -41 62
-10 -31 50 -85 55 -193 101 -238 101 -13 0 -12 3 4 14 18 13 27 13 65 2 24 -8
61 -23 82 -35 21 -11 45 -21 55 -22 14 0 14 -2 -3 -8 -17 -7 -10 -13 45 -40
36 -18 74 -41 86 -52 29 -27 37 -24 20 9 -19 33 -68 81 -121 117 l-40 27 40
-8 40 -7 -19 21 c-10 12 -34 27 -52 34 -18 6 -31 15 -29 19 9 13 -30 50 -55
52 -14 1 -34 8 -46 14 -31 17 -189 20 -209 3 -19 -16 -17 -17 -44 45 -12 28
-42 83 -67 123 l-45 72 -55 0 -54 0 21 -41 c11 -23 34 -53 50 -66 32 -27 40
-57 12 -46 -24 9 -58 49 -91 105 -26 45 -29 48 -70 48 l-43 0 16 -30z m157
-164 c13 -30 20 -52 13 -50 -13 5 -55 76 -55 93 0 26 18 7 42 -43z m5 -78 c-3
-8 -6 -5 -6 6 -1 11 2 17 5 13 3 -3 4 -12 1 -19z m471 -23 c-3 -3 -9 2 -12 12
-6 14 -5 15 5 6 7 -7 10 -15 7 -18z m-357 -62 c-12 -20 -14 -14 -5 12 4 9 9
14 11 11 3 -2 0 -13 -6 -23z m244 -47 c89 -24 150 -52 131 -59 -30 -12 -74 -8
-198 18 -66 14 -137 25 -157 26 l-36 1 45 13 c60 17 154 18 215 1z m45 -245
c0 -5 -7 -17 -16 -25 -12 -13 -18 -13 -29 -3 -12 10 -11 14 3 25 19 14 42 16
42 3z m-42 -183 c-6 -18 -28 -21 -28 -4 0 9 7 16 16 16 9 0 14 -5 12 -12z
m-304 -34 c9 -23 7 -64 -3 -64 -9 0 -21 34 -21 63 0 21 16 22 24 1z m291 -74
c-3 -5 -11 -10 -16 -10 -6 0 -7 5 -4 10 3 6 11 10 16 10 6 0 7 -4 4 -10z
m-266 -139 c8 -14 6 -23 -9 -36 -14 -12 -20 -31 -20 -57 0 -50 -21 -47 -34 6
-8 30 -6 44 9 72 20 38 39 43 54 15z m465 -686 c15 -23 15 -26 0 -32 -18 -7
-34 12 -34 40 0 25 15 21 34 -8z m-230 -9 c21 -33 4 -43 -32 -20 -23 15 -24
19 -9 22 9 2 15 8 12 13 -14 21 14 7 29 -15z m-68 -74 c6 -4 13 -15 17 -25 4
-10 11 -15 17 -12 11 7 14 -8 4 -18 -8 -7 -67 13 -76 27 -20 29 8 49 38 28z
m224 -73 c19 1 39 5 45 10 5 4 21 5 35 1 22 -5 25 -12 26 -49 1 -34 -4 -46
-23 -58 -15 -10 -20 -19 -14 -27 13 -17 -5 -55 -33 -66 -13 -5 -27 -14 -31
-19 -14 -23 -106 0 -147 37 -24 20 -23 35 2 28 11 -3 29 -9 40 -12 31 -8 24
15 -7 26 -46 16 -56 25 -58 48 -1 18 2 21 24 15 27 -7 35 -7 88 -1 34 3 46 18
16 18 -10 0 -37 9 -60 20 -72 32 -46 72 27 42 19 -8 51 -14 70 -13z m-829 -15
c8 -8 23 -14 33 -14 27 0 18 -62 -11 -75 -45 -20 -30 -30 60 -40 47 -5 57 -10
57 -25 0 -25 -29 -40 -79 -40 -23 0 -41 -4 -41 -9 0 -11 35 -21 75 -21 63 -1
99 -23 58 -36 -10 -3 -27 -9 -38 -14 -45 -18 -59 -20 -96 -8 -30 8 -41 18 -45
37 -3 14 -10 36 -15 49 -5 13 -9 34 -9 48 0 14 -5 35 -11 46 -8 15 -8 26 1 44
7 13 10 36 6 54 -5 29 -4 31 17 24 12 -3 29 -13 38 -20z m605 -20 c22 -11 34
-23 32 -33 -6 -31 -98 1 -98 34 0 20 24 19 66 -1z m-478 -31 c-2 -9 -9 -18
-16 -19 -7 -1 -8 0 -3 2 6 3 7 12 4 20 -3 8 0 14 7 14 6 0 10 -8 8 -17z
m-1305 -40 c-7 -2 -21 -2 -30 0 -10 3 -4 5 12 5 17 0 24 -2 18 -5z m-329 -9
c23 -9 20 -24 -4 -24 -11 0 -20 -4 -20 -9 0 -5 30 -12 68 -16 37 -3 91 -14
119 -22 29 -9 56 -14 59 -10 8 7 -20 37 -35 37 -5 0 -9 9 -8 20 1 15 7 19 27
16 14 -2 33 -7 42 -11 10 -4 40 -5 68 -3 47 3 51 1 46 -17 -3 -11 -6 -30 -6
-42 0 -25 -37 -34 -151 -37 -62 -2 -71 0 -84 21 -9 13 -23 23 -31 23 -13 0
-14 -3 -4 -15 9 -11 8 -20 -6 -44 -15 -26 -16 -32 -4 -46 12 -15 12 -19 -5
-31 -36 -26 -72 -15 -54 18 15 28 -10 74 -39 71 -17 -2 -22 3 -23 20 -1 20 -2
20 -13 -6 -14 -31 -27 -25 -64 29 -27 39 -18 49 51 59 26 4 47 11 47 16 0 11
3 11 24 3z m2147 -14 c20 -16 21 -19 7 -20 -22 0 -68 21 -68 32 0 15 38 8 61
-12z m-141 -17 c0 -5 -8 -30 -19 -57 -18 -48 -18 -48 -33 -27 -10 15 -17 18
-20 10 -3 -10 -20 -8 -71 7 -96 27 -88 53 16 55 29 1 66 5 82 9 42 11 45 11
45 3z m-1800 -112 c0 -5 -14 -14 -31 -20 -43 -15 -45 -14 -24 9 18 20 55 28
55 11z m-229 -39 c-8 -15 -8 -22 2 -25 6 -2 8 -8 4 -13 -4 -5 -12 -2 -17 6 -7
11 -19 4 -59 -33 -56 -52 -58 -53 -58 -32 0 8 3 13 5 10 8 -8 32 16 26 26 -3
5 0 8 7 7 7 -2 13 2 14 9 0 21 67 85 77 75 6 -6 6 -17 -1 -30z m354 29 c-11
-4 -40 -16 -65 -27 -25 -12 -63 -24 -85 -28 l-40 -8 28 26 c16 15 45 31 65 35
45 11 127 12 97 2z m-208 -27 c-3 -3 -12 -4 -19 -1 -8 3 -5 6 6 6 11 1 17 -2
13 -5z m1438 -44 c3 -5 -1 -20 -9 -32 -16 -22 -16 -22 -16 10 0 31 12 42 25
22z m-1060 -20 c-3 -5 -12 -10 -18 -10 -7 0 -6 4 3 10 19 12 23 12 15 0z
m1848 -27 c-7 -2 -21 -2 -30 0 -10 3 -4 5 12 5 17 0 24 -2 18 -5z m-2529 -62
c-10 -9 -14 -11 -9 -2 4 8 2 17 -6 22 -11 8 -10 12 6 25 19 14 20 13 23 -7 2
-12 -4 -29 -14 -38z m2596 49 c13 -9 13 -10 0 -9 -8 0 -24 4 -35 9 l-20 9 20
0 c11 0 27 -4 35 -9z m-873 -14 c-5 -16 -27 -19 -27 -3 0 7 7 14 15 14 9 0 14
-5 12 -11z m33 -1 c0 -8 -4 -15 -10 -15 -5 0 -10 7 -10 15 0 8 5 15 10 15 6 0
10 -7 10 -15z m998 -2 c-10 -2 -26 -2 -35 0 -10 3 -2 5 17 5 19 0 27 -2 18 -5z
m-2818 -29 c0 -8 -4 -12 -10 -9 -5 3 -10 10 -10 16 0 5 5 9 10 9 6 0 10 -7 10
-16z m1756 -45 c13 -26 14 -33 3 -40 -10 -6 -16 -1 -22 14 -6 16 -10 18 -16 8
-12 -19 -24 4 -16 29 9 29 32 24 51 -11z m-1786 -17 c0 -15 0 -36 1 -47 0 -11
-2 -33 -4 -50 -3 -16 -2 -22 0 -12 2 9 10 17 17 17 14 0 43 -29 39 -39 -2 -3
4 -6 13 -6 9 0 20 -10 25 -22 6 -16 5 -23 -3 -23 -9 0 -9 -3 0 -12 9 -9 7 -17
-8 -33 l-20 -22 25 -37 c14 -20 25 -40 25 -45 0 -4 9 -17 20 -29 l21 -22 -23
-30 -22 -30 -16 32 c-9 18 -29 51 -43 72 -29 42 -35 62 -14 50 6 -4 0 5 -15
21 -29 29 -98 157 -98 182 0 7 12 19 26 25 22 10 25 16 19 46 -4 24 -2 38 6
43 19 11 29 1 29 -29z m-925 8 c4 -6 -6 -10 -24 -10 -16 0 -33 5 -36 10 -4 6
6 10 24 10 16 0 33 -4 36 -10z m995 -5 c-7 -9 -15 -13 -19 -10 -3 3 1 10 9 15
21 14 24 12 10 -5z m580 5 c18 -12 2 -12 -25 0 -13 6 -15 9 -5 9 8 0 22 -4 30
-9z m130 -31 c0 -9 -71 9 -83 21 -5 4 12 3 37 -3 25 -6 46 -14 46 -18z m-1213
-35 c-3 -3 -12 -4 -19 -1 -8 3 -5 6 6 6 11 1 17 -2 13 -5z m-47 -8 c0 -2 -7
-7 -16 -10 -8 -3 -12 -2 -9 4 6 10 25 14 25 6z m1170 -76 c0 -5 -7 -10 -16
-10 -8 0 -12 5 -9 10 3 6 10 10 16 10 5 0 9 -4 9 -10z m-905 -24 c0 -30 -22
-30 -27 -1 -4 20 -2 25 11 23 9 -2 16 -12 16 -22z m3705 4 c8 -5 12 -11 10
-14 -3 -2 -14 2 -24 10 -22 15 -10 19 14 4z m-2566 -55 c22 -16 56 -72 56 -91
0 -8 -45 4 -45 12 -1 14 -26 56 -51 87 -28 33 -33 60 -6 31 10 -10 31 -28 46
-39z m-1134 -16 c0 -11 -4 -17 -10 -14 -5 3 -10 13 -10 21 0 8 5 14 10 14 6 0
10 -9 10 -21z m3856 -35 c-3 -8 -10 -14 -15 -14 -10 0 -9 9 6 48 6 16 6 16 10
-1 3 -10 2 -25 -1 -33z m-3439 4 c-3 -8 -6 -5 -6 6 -1 11 2 17 5 13 3 -3 4
-12 1 -19z m73 12 c0 -5 -7 -6 -17 -3 -11 4 -14 3 -9 -5 4 -7 3 -12 -3 -12
-16 0 -22 18 -9 23 22 9 38 8 38 -3z m755 -39 c3 -5 1 -12 -5 -16 -5 -3 -10 1
-10 9 0 18 6 21 15 7z m-787 -75 c3 -12 -1 -17 -10 -14 -7 3 -15 13 -16 22 -3
12 1 17 10 14 7 -3 15 -13 16 -22z m-468 0 c0 -2 -7 -6 -15 -10 -8 -3 -15 -1
-15 4 0 6 7 10 15 10 8 0 15 -2 15 -4z m1310 -26 c0 -5 -2 -10 -4 -10 -3 0 -8
5 -11 10 -3 6 -1 10 4 10 6 0 11 -4 11 -10z m40 0 c0 -5 -4 -10 -10 -10 -5 0
-10 5 -10 10 0 6 5 10 10 10 6 0 10 -4 10 -10z m1489 -102 c-1 -62 -4 -176 -8
-253 l-6 -140 -44 0 -45 0 -11 -56 c-14 -69 -20 -79 -49 -79 -47 0 -81 71 -69
144 8 50 53 100 82 91 16 -5 18 1 20 50 1 50 -1 57 -24 67 -21 9 -32 8 -61 -5
-42 -20 -69 -74 -79 -158 -8 -67 -1 -95 25 -102 12 -3 21 -17 25 -40 4 -22 22
-51 48 -77 l42 -42 -22 -15 c-20 -13 -23 -24 -23 -78 0 -56 -2 -63 -22 -70
-20 -6 -20 -8 -5 -12 26 -7 24 -70 -3 -78 -24 -7 -40 1 -40 20 0 30 -44 43
-167 48 -102 4 -123 3 -123 -9 0 -8 -4 -14 -9 -14 -5 0 -13 25 -19 57 -8 46
-7 62 7 87 9 18 16 54 16 86 l0 55 -37 -1 -38 -1 0 243 c0 199 2 244 14 244
17 0 16 72 -1 83 -7 4 -13 21 -13 37 l0 30 320 0 320 0 -1 -112z m-2849 82
c-8 -5 -22 -9 -30 -9 -10 0 -8 3 5 9 27 12 43 12 25 0z m890 -35 c0 -8 -4 -15
-9 -15 -5 0 -14 7 -21 15 -10 13 -9 15 9 15 12 0 21 -6 21 -15z m-550 -15 c0
-5 -2 -10 -4 -10 -3 0 -8 5 -11 10 -3 6 -1 10 4 10 6 0 11 -4 11 -10z m-356
-19 c9 -13 -4 -42 -16 -35 -5 3 -7 12 -4 19 3 8 0 16 -7 19 -7 2 -5 5 5 5 9 1
19 -3 22 -8z m23 -77 c-3 -3 -12 -4 -19 -1 -8 3 -5 6 6 6 11 1 17 -2 13 -5z
m956 -21 c3 -5 -11 -9 -31 -10 -32 -1 -34 0 -12 7 34 11 38 11 43 3z m-723 -7
c0 -2 -7 -7 -16 -10 -8 -3 -12 -2 -9 4 6 10 25 14 25 6z m3650 -90 c0 -25 5
-48 10 -51 13 -8 43 62 36 81 -3 8 1 14 9 14 8 0 15 -4 15 -10 0 -5 6 -7 14
-4 7 3 25 -9 39 -26 67 -79 51 -206 -32 -268 -63 -46 -129 -41 -184 14 -60 60
-61 158 -3 229 19 23 24 25 20 10 -6 -22 39 -74 50 -57 7 12 -13 74 -28 84 -6
4 0 11 14 17 39 15 40 14 40 -33z m-2247 -27 c-3 -10 -11 -24 -19 -30 -12 -9
-14 -5 -14 24 0 29 3 34 19 30 12 -3 17 -11 14 -24z m-1655 -124 c-7 -7 -98
-34 -98 -29 0 8 64 33 84 34 11 0 17 -2 14 -5z m3008 -93 c-11 -10 -13 3 -7
43 l6 40 3 -39 c2 -21 1 -41 -2 -44z m333 13 c30 -30 -26 -38 -221 -36 -43 1
-48 3 -48 24 0 23 1 23 130 22 71 0 134 -5 139 -10z m51 -5 c0 -5 -4 -10 -10
-10 -5 0 -10 5 -10 10 0 6 5 10 10 10 6 0 10 -4 10 -10z m-332 -41 c32 -11 52
-39 27 -39 -8 0 -15 -9 -15 -20 0 -11 -7 -20 -15 -20 -8 0 -15 -4 -15 -10 0
-5 7 -7 15 -4 9 4 15 0 15 -10 0 -12 -5 -14 -25 -6 -23 9 -25 7 -25 -16 0 -26
20 -54 39 -54 6 0 11 -9 11 -20 0 -11 -7 -20 -15 -20 -8 0 -16 -8 -16 -17 -1
-10 -5 0 -9 22 l-7 40 -2 -47 c-1 -35 3 -48 13 -48 15 0 36 -49 36 -84 0 -20
-1 -19 -13 3 -14 28 -44 43 -34 18 7 -19 -18 -30 -31 -14 -4 7 -8 76 -8 154 1
104 -2 143 -11 143 -22 0 -25 21 -4 27 12 3 21 12 21 19 0 17 26 18 68 3z
m512 -9 c0 -15 -26 -23 -41 -14 -9 5 -7 10 7 15 27 11 34 10 34 -1z m193 -22
c-1 -16 2 -28 8 -28 5 0 9 -18 9 -39 0 -39 0 -40 -45 -47 -43 -6 -45 -8 -45
-41 l0 -35 -62 6 c-98 10 -196 8 -218 -4 -14 -7 -20 -21 -20 -45 0 -56 -7 -65
-38 -50 -15 7 -51 16 -79 20 l-53 7 0 54 c0 30 -3 54 -7 54 -5 0 -6 -24 -5
-54 4 -52 3 -54 -27 -64 l-31 -11 0 116 0 117 28 -27 c51 -49 142 -29 142 30
0 43 18 63 55 63 44 0 71 -10 55 -20 -7 -4 -9 -13 -6 -19 5 -7 59 -11 162 -11
130 0 154 2 154 15 0 10 -10 15 -32 15 -54 0 -108 12 -102 22 3 5 40 8 82 6
l77 -3 -2 -27z m-273 8 c-14 -7 -29 -11 -34 -8 -12 6 15 22 39 22 17 0 17 -2
-5 -14z m-3240 -16 c0 -5 -5 -10 -11 -10 -5 0 -7 5 -4 10 3 6 8 10 11 10 2 0
4 -4 4 -10z m270 -14 c0 -3 -4 -8 -10 -11 -5 -3 -10 -1 -10 4 0 6 5 11 10 11
6 0 10 -2 10 -4z m2612 -71 c-2 -14 -9 -28 -14 -31 -5 -3 -4 -11 2 -19 17 -20
9 -90 -10 -90 -12 0 -15 17 -17 85 -1 54 3 87 10 92 18 11 35 -10 29 -37z
m858 26 c0 -5 -15 -22 -34 -39 -27 -24 -34 -38 -37 -76 -2 -25 0 -48 6 -51 6
-3 5 -7 -2 -11 -7 -3 -14 -18 -14 -32 -3 -63 -17 35 -18 126 l-1 92 50 0 c28
0 50 -4 50 -9z m-3971 -50 c-15 -5 -22 6 -14 19 6 9 10 9 16 -1 5 -8 4 -15 -2
-18z m228 -5 c-3 -8 -1 -17 6 -20 7 -2 3 -5 -8 -5 -11 0 -26 3 -34 8 -11 7
-10 11 5 20 26 15 37 14 31 -3z m3490 -38 c-3 -8 -6 -5 -6 6 -1 11 2 17 5 13
3 -3 4 -12 1 -19z m19 -223 c-36 -39 -56 -27 -57 32 -2 95 12 137 42 128 9 -3
21 0 26 7 5 8 9 -18 11 -64 3 -70 1 -78 -22 -103z m-496 89 c0 -8 -4 -14 -10
-14 -5 0 -10 9 -10 21 0 11 5 17 10 14 6 -3 10 -13 10 -21z m280 6 c0 -5 -17
-9 -37 -9 -38 1 -38 1 -8 9 43 11 45 11 45 0z m100 -11 c0 -11 -27 -12 -34 0
-3 4 -3 11 0 14 8 8 34 -3 34 -14z m-520 -25 c0 -26 -17 -33 -26 -9 -8 20 3
48 16 40 5 -3 10 -17 10 -31z m77 -4 c12 -31 7 -70 -8 -70 -5 0 -12 14 -16 31
-4 22 -8 27 -14 17 -10 -15 -11 -2 -3 30 9 31 28 28 41 -8z m117 -24 c10 -51
-1 -83 -27 -81 -27 2 -36 59 -13 84 9 10 13 21 9 24 -3 4 1 7 9 7 10 0 18 -13
22 -34z m-1049 -1 c0 -13 -8 -21 -22 -23 -19 -3 -23 1 -23 23 0 22 4 26 23 23
14 -2 22 -10 22 -23z m1193 18 c-10 -2 -26 -2 -35 0 -10 3 -2 5 17 5 19 0 27
-2 18 -5z m-393 -32 c-3 -6 -11 -8 -17 -5 -6 4 -5 9 3 15 16 10 23 4 14 -10z
m175 -1 c0 -11 -4 -20 -10 -20 -5 0 -10 9 -10 20 0 11 5 20 10 20 6 0 10 -9
10 -20z m676 -46 c-3 -9 -6 -20 -6 -25 0 -5 -4 -9 -10 -9 -5 0 -10 11 -10 25
0 16 6 25 16 25 11 0 14 -5 10 -16z m-1246 -19 c0 -8 -4 -15 -10 -15 -5 0 -7
7 -4 15 4 8 8 15 10 15 2 0 4 -7 4 -15z m786 -40 c-9 -34 12 -41 183 -63 124
-15 136 -19 136 -37 0 -11 -7 -20 -15 -21 -8 0 -33 -6 -55 -12 -22 -6 -98 -17
-170 -23 -71 -7 -136 -17 -143 -22 -21 -16 5 -38 37 -31 52 13 7 -15 -49 -29
-44 -11 -56 -19 -58 -36 -4 -25 14 -51 34 -51 8 0 14 8 14 18 0 28 10 33 40
17 41 -21 88 -80 96 -121 8 -44 -5 -59 -43 -49 -15 3 -29 5 -29 3 -1 -2 -12 6
-23 16 -24 22 -90 48 -102 40 -16 -9 4 -35 24 -32 11 2 22 -3 24 -9 3 -8 -4
-13 -15 -13 -11 0 -22 -9 -25 -20 -4 -17 -9 -19 -29 -10 -17 8 -40 7 -88 -4
-43 -10 -68 -12 -75 -5 -15 15 6 41 48 62 30 15 35 21 28 40 -6 17 -18 23 -50
25 -22 2 -41 7 -41 13 0 5 -7 9 -15 9 -19 0 -19 34 0 50 11 9 12 16 4 26 -8
10 -1 15 30 25 24 7 41 18 41 27 0 10 -6 12 -17 7 -10 -4 -29 -10 -43 -13 -38
-7 -53 -22 -39 -38 9 -11 7 -14 -10 -14 -11 0 -21 5 -21 10 0 6 -4 10 -10 10
-5 0 -10 -7 -10 -15 0 -8 -9 -15 -20 -15 -11 0 -20 5 -20 11 0 17 -53 6 -83
-18 -16 -13 -37 -23 -48 -23 -11 0 -19 -7 -19 -16 0 -8 -5 -12 -10 -9 -6 4 -7
11 -3 18 3 6 7 27 7 46 1 34 3 36 51 48 28 7 67 15 88 18 41 7 47 22 17 48
-17 14 -20 29 -20 91 0 59 3 75 16 80 9 4 22 1 30 -5 7 -6 43 -9 82 -8 38 1
74 -1 80 -4 5 -4 17 -4 25 -1 9 3 59 -2 112 -11 112 -19 138 -15 129 21 -5 18
-2 24 11 24 13 0 16 -6 11 -25z m-769 -28 c-3 -10 -99 -39 -105 -32 -9 8 21
45 46 58 23 12 29 12 45 -1 10 -9 16 -20 14 -25z m-209 -23 c-4 -3 -22 -2 -40
2 l-33 8 30 6 c29 6 55 -3 43 -16z m1448 -6 c-3 -13 -6 -31 -6 -40 0 -14 -8
-18 -35 -18 -38 0 -49 19 -12 21 12 1 25 1 30 0 4 0 7 13 7 29 0 17 5 30 11
30 7 0 9 -9 5 -22z m332 -28 c6 -16 7 -30 3 -30 -8 0 -31 44 -31 61 0 19 18
-1 28 -31z m-1753 -69 c-13 -15 -25 -19 -49 -14 -53 10 -51 21 5 30 30 5 56 8
58 6 2 -1 -4 -12 -14 -22z m1353 -40 c4 -11 -3 -13 -28 -8 -18 4 -48 7 -66 7
-19 0 -34 5 -34 10 0 17 122 8 128 -9z m-344 -16 c11 -8 28 -15 38 -15 22 0
98 -32 98 -42 0 -20 -43 -17 -72 4 -18 13 -45 28 -62 34 -16 6 -32 16 -34 22
-5 16 9 15 32 -3z m-1180 -53 c2 -4 -13 -17 -35 -29 -42 -23 -48 -20 -23 15
15 21 48 30 58 14z m1350 -13 c-6 -11 -24 -2 -24 11 0 5 7 7 15 4 8 -4 12 -10
9 -15z m265 -19 c68 0 45 -8 -41 -14 -80 -6 -108 -1 -108 16 0 7 19 9 53 4 28
-3 72 -6 96 -6z m-1253 -81 c3 -6 0 -15 -7 -20 -7 -4 -10 -11 -6 -16 5 -4 11
-3 15 3 4 6 33 15 65 18 58 8 59 7 52 -16 -26 -82 -31 -85 -117 -65 -61 13
-63 15 -60 43 3 28 27 64 43 64 4 0 11 -5 15 -11z m414 -10 c0 -5 -4 -9 -10
-9 -5 0 -10 7 -10 16 0 8 5 12 10 9 6 -3 10 -10 10 -16z m-590 -43 c0 -19 -1
-19 -13 -1 -8 10 -19 15 -25 11 -7 -4 -12 -1 -12 9 0 9 5 13 10 10 6 -3 10 2
10 12 1 17 2 17 15 -1 8 -11 15 -29 15 -40z m-120 20 c0 -8 -9 -17 -19 -21
-11 -3 -26 -17 -35 -30 -18 -28 -44 -33 -52 -11 -8 21 51 76 81 76 15 0 25 -6
25 -14z m-121 -93 c1 -7 -3 -13 -9 -13 -5 0 -10 15 -9 33 0 27 2 29 9 12 5
-11 9 -26 9 -32z m148 -185 c-18 -49 -17 -56 8 -72 19 -12 25 -25 25 -52 0
-22 -6 -37 -16 -41 -24 -9 -38 12 -41 65 -2 26 -6 62 -9 80 -6 28 -4 32 16 32
14 0 20 -5 17 -12z"/>
<path d="M1343 2574 c-20 -18 -22 -22 -7 -15 21 10 52 41 41 41 -3 0 -19 -12
-34 -26z"/>
<path d="M3518 1847 c-24 -9 -39 -27 -23 -27 10 0 65 30 65 35 0 7 -10 5 -42
-8z"/>
<path d="M3601 1564 c0 -11 3 -14 6 -6 3 7 2 16 -1 19 -3 4 -6 -2 -5 -13z"/>
<path d="M3621 1524 c0 -11 3 -14 6 -6 3 7 2 16 -1 19 -3 4 -6 -2 -5 -13z"/>
<path d="M3566 1421 c-4 -7 -5 -15 -2 -18 9 -9 19 4 14 18 -4 11 -6 11 -12 0z"/>
<path d="M3601 1394 c0 -11 3 -14 6 -6 3 7 2 16 -1 19 -3 4 -6 -2 -5 -13z"/>
<path d="M3340 1320 c0 -5 5 -10 10 -10 6 0 10 5 10 10 0 6 -4 10 -10 10 -5 0
-10 -4 -10 -10z"/>
<path d="M3351 1265 c0 -11 -8 -30 -16 -42 -17 -25 -37 -22 -72 10 -13 11 -25
18 -28 15 -10 -9 93 -78 108 -72 7 2 26 0 41 -5 l26 -11 -24 44 c-13 24 -26
52 -29 62 -4 18 -5 18 -6 -1z m-1 -65 c0 -5 -4 -10 -10 -10 -5 0 -10 5 -10 10
0 6 5 10 10 10 6 0 10 -4 10 -10z"/>
<path d="M3190 1170 c0 -5 12 -10 28 -9 24 0 25 1 7 9 -27 12 -35 12 -35 0z"/>
<path d="M4872 1684 c-37 -56 -30 -67 24 -33 39 24 41 30 16 52 -16 15 -19 13
-40 -19z"/>
<path d="M4686 1643 c-3 -3 -6 -18 -6 -33 0 -23 4 -27 28 -25 38 3 42 4 42 14
0 13 -56 52 -64 44z"/>
<path d="M4802 1631 c2 -7 7 -12 11 -12 12 1 9 15 -3 20 -7 2 -11 -2 -8 -8z"/>
<path d="M4903 1615 c-50 -21 -38 -45 23 -45 20 0 24 5 24 30 0 34 -2 35 -47
15z"/>
<path d="M4697 1548 c-17 -13 -14 -58 3 -58 5 0 6 10 3 23 -4 17 -2 19 5 8 9
-12 13 -12 26 -2 37 31 2 57 -37 29z"/>
<path d="M4856 1541 c-8 -12 43 -73 55 -65 5 3 13 14 19 24 9 16 5 22 -19 35
-34 17 -47 19 -55 6z"/>
<path d="M4746 1488 c-18 -30 -18 -32 -1 -45 24 -16 35 -2 35 45 0 40 -11 41
-34 0z"/>
<path d="M4817 1513 c-18 -18 -3 -83 19 -83 23 0 27 25 9 59 -17 33 -18 35
-28 24z"/>
<path d="M4248 1359 c-21 -36 -26 -169 -7 -169 6 0 9 9 6 19 -3 15 -1 18 12
14 13 -5 14 -3 4 8 -17 17 -16 52 2 95 9 21 19 33 26 29 7 -5 10 -1 7 11 -5
30 -32 27 -50 -7z"/>
<path d="M4160 700 c0 -5 -11 -10 -25 -10 -29 0 -32 -19 -11 -53 8 -12 17 -43
21 -69 7 -54 20 -60 53 -25 30 32 28 42 -10 58 -18 7 -34 13 -36 14 -4 3 29
65 39 70 5 4 7 11 4 16 -8 12 -35 12 -35 -1z"/>
<path d="M4075 601 c-3 -5 -1 -12 5 -16 12 -7 30 2 30 16 0 12 -27 12 -35 0z"/>
<path d="M4050 4801 c0 -12 68 -71 83 -71 16 -1 57 -35 57 -49 0 -13 57 -44
68 -37 5 3 28 -1 53 -9 46 -14 50 -26 22 -57 -14 -16 -14 -19 8 -37 13 -11 27
-20 30 -21 3 0 15 -8 27 -18 16 -15 21 -29 20 -68 -1 -46 18 -114 33 -114 3 0
15 9 26 19 12 11 23 17 26 14 13 -12 19 50 8 91 -7 29 -7 54 -1 77 6 19 10 58
10 86 0 46 3 53 19 53 11 0 23 -5 26 -10 15 -25 25 7 25 81 l0 79 -270 0
c-153 0 -270 -4 -270 -9z"/>
<path d="M2765 4760 c3 -5 8 -10 11 -10 2 0 4 5 4 10 0 6 -5 10 -11 10 -5 0
-7 -4 -4 -10z"/>
<path d="M2245 4663 c-27 -2 -54 -8 -58 -12 -13 -13 23 -43 42 -35 9 3 44 8
78 9 33 2 75 6 92 10 17 4 45 4 61 0 30 -7 31 -8 28 -58 -2 -37 -7 -51 -17
-49 -7 1 -18 -2 -25 -7 -14 -12 -226 -18 -244 -7 -8 5 -12 -1 -12 -18 0 -31
-5 -30 163 -15 70 6 128 16 135 23 14 14 52 153 44 161 -6 5 -206 4 -287 -2z"/>
<path d="M4027 4659 c-13 -8 -15 -14 -7 -29 5 -10 10 -28 10 -39 0 -36 19 -23
26 17 10 62 5 71 -29 51z"/>
<path d="M2422 4608 c-15 -15 -16 -45 -2 -53 16 -10 50 15 50 37 0 12 -3 18
-7 15 -3 -4 -11 -2 -18 3 -7 6 -16 5 -23 -2z"/>
<path d="M3284 4384 c-18 -14 -18 -15 4 -4 12 6 22 13 22 15 0 8 -5 6 -26 -11z"/>
<path d="M2838 4360 l-17 -30 33 0 c38 0 96 18 96 30 0 6 -75 30 -92 30 -2 0
-11 -14 -20 -30z"/>
<path d="M3870 4259 c0 -9 7 -24 16 -35 8 -10 13 -14 10 -7 -4 6 -2 13 2 15 5
1 1 12 -9 22 -15 15 -19 16 -19 5z"/>
<path d="M3900 4175 c7 -9 15 -13 17 -11 7 7 -7 26 -19 26 -6 0 -6 -6 2 -15z"/>
<path d="M4713 4135 c-29 -44 -29 -61 -1 -68 12 -4 24 -5 26 -3 2 2 2 27 0 55
l-3 50 -22 -34z"/>
<path d="M4550 3964 c-11 -29 2 -64 24 -64 19 0 29 46 16 70 -15 27 -29 25
-40 -6z"/>
<path d="M3610 3739 c0 -5 5 -7 10 -4 6 3 10 8 10 11 0 2 -4 4 -10 4 -5 0 -10
-5 -10 -11z"/>
<path d="M4682 3742 c-49 -3 -53 -5 -66 -37 -8 -18 -24 -36 -38 -41 -18 -6 -9
-10 47 -20 38 -8 82 -23 96 -33 l27 -20 -5 77 c-3 42 -6 77 -7 77 0 0 -25 -1
-54 -3z"/>
<path d="M4265 3676 c-33 -9 -45 -21 -67 -61 -50 -91 -86 -188 -127 -345 -23
-85 -48 -167 -56 -182 -18 -35 -11 -78 24 -149 26 -53 35 -61 114 -94 l34 -14
-5 82 c-3 57 -9 85 -20 93 -13 9 -12 13 5 25 11 8 20 21 20 29 1 23 78 317
111 422 16 51 39 111 50 133 17 30 19 41 9 47 -8 5 -6 8 8 8 17 0 17 2 5 10
-19 13 -55 11 -105 -4z m5 -50 c0 -8 -7 -16 -15 -20 -12 -4 -13 -2 -2 14 14
24 17 25 17 6z"/>
<path d="M4398 3673 c7 -3 16 -2 19 1 4 3 -2 6 -13 5 -11 0 -14 -3 -6 -6z"/>
<path d="M3650 3515 c-10 -13 -9 -19 6 -36 23 -26 67 -49 91 -49 14 0 12 3 -7
13 -53 28 -70 42 -65 55 3 8 0 10 -7 6 -8 -5 -9 -2 -5 9 8 21 3 22 -13 2z"/>
<path d="M2886 3023 c-4 -9 -2 -21 4 -27 7 -7 10 -5 10 6 0 19 24 30 45 22 18
-7 20 -35 3 -52 -7 -7 -8 -12 -2 -12 18 0 94 40 94 50 0 18 -39 30 -93 30 -42
0 -56 -4 -61 -17z"/>
<path d="M4675 2865 c-22 -7 -35 -13 -29 -14 14 -1 26 -41 13 -41 -5 0 -9 -7
-9 -15 0 -8 -6 -15 -14 -15 -27 0 -48 -31 -42 -62 9 -45 -8 -33 -32 23 -25 61
-47 58 -37 -5 9 -53 19 -64 58 -64 18 0 50 -5 72 -11 84 -22 85 -22 85 106 0
124 2 120 -65 98z m30 -15 c-3 -5 -14 -10 -23 -10 -15 0 -15 2 -2 10 20 13 33
13 25 0z"/>
<path d="M4564 2824 c-18 -14 -18 -15 4 -4 12 6 22 13 22 15 0 8 -5 6 -26 -11z"/>
<path d="M3111 1114 c0 -11 3 -14 6 -6 3 7 2 16 -1 19 -3 4 -6 -2 -5 -13z"/>
</g>
</svg>
