<?xml version="1.0" standalone="no"?>
<!DOCTYPE svg PUBLIC "-//W3C//DTD SVG 20010904//EN"
 "http://www.w3.org/TR/2001/REC-SVG-20010904/DTD/svg10.dtd">
<svg version="1.0" xmlns="http://www.w3.org/2000/svg"
 width="166.000000pt" height="196.000000pt" viewBox="0 0 166.000000 196.000000"
 preserveAspectRatio="xMidYMid meet">

<g transform="translate(0.000000,196.000000) scale(0.100000,-0.100000)"
fill="#000000" stroke="none">
<path d="M0 1364 l0 -596 25 30 c22 27 25 39 25 111 0 59 5 89 16 107 26 39
96 74 201 101 96 24 96 24 200 116 114 101 202 165 275 203 45 23 56 24 230
24 172 0 186 -2 235 -24 123 -58 404 -272 424 -324 6 -15 15 -49 19 -77 4 -28
8 169 9 438 l1 487 -830 0 -830 0 0 -596z"/>
<path d="M760 1344 c-53 -30 -151 -109 -235 -188 l-60 -57 165 6 c91 3 193 8
228 11 l62 6 0 124 0 124 -57 0 c-44 0 -69 -7 -103 -26z"/>
<path d="M1015 1358 c-3 -8 -4 -63 -3 -123 l3 -109 95 3 c223 8 292 15 304 33
23 38 -64 111 -200 168 -90 37 -190 51 -199 28z"/>
<path d="M117 1013 c-4 -3 -7 -26 -7 -50 0 -39 2 -43 25 -43 19 0 25 5 26 23
l0 22 16 -22 c21 -31 47 -29 63 5 l14 27 4 -27 c2 -20 9 -28 23 -28 16 0 19 7
19 50 0 46 -2 50 -24 50 -17 0 -31 -11 -46 -36 l-22 -35 -25 35 c-22 33 -50
46 -66 29z"/>
<path d="M320 970 l0 -50 60 0 c62 0 81 15 33 26 -45 10 -50 12 -20 13 15 1
27 5 27 10 0 5 -12 12 -27 14 -26 4 -26 4 5 6 21 0 32 6 32 16 0 12 -13 15
-55 15 l-55 0 0 -50z"/>
<path d="M466 1004 c-19 -18 -21 -55 -4 -72 17 -17 93 -15 108 3 18 22 4 31
-30 18 -23 -9 -32 -8 -40 3 -20 23 -1 36 41 29 42 -7 53 7 20 25 -29 15 -77
12 -95 -6z"/>
<path d="M623 972 l-30 -48 78 0 c85 1 85 0 37 69 -28 40 -51 34 -85 -21z m57
-2 c0 -5 -5 -10 -11 -10 -5 0 -7 5 -4 10 3 6 8 10 11 10 2 0 4 -4 4 -10z"/>
<path d="M766 998 c-3 -13 -6 -35 -6 -50 0 -23 4 -28 25 -28 20 0 25 5 25 27
l0 27 28 -27 c15 -15 38 -27 50 -27 20 0 22 5 22 50 0 43 -3 50 -20 50 -16 0
-20 -7 -20 -32 l-1 -33 -28 33 c-32 38 -66 42 -75 10z"/>
<path d="M930 970 c0 -43 3 -50 20 -50 17 0 20 7 20 50 0 43 -3 50 -20 50 -17
0 -20 -7 -20 -50z"/>
<path d="M1006 1004 c-19 -18 -21 -55 -4 -72 17 -17 93 -15 108 3 18 22 4 31
-30 18 -23 -9 -32 -8 -40 3 -20 23 -1 36 41 29 42 -7 53 7 20 25 -29 15 -77
12 -95 -6z"/>
<path d="M1163 972 l-30 -48 78 0 c85 1 85 0 37 69 -28 40 -51 34 -85 -21z
m57 -2 c0 -5 -5 -10 -11 -10 -5 0 -7 5 -4 10 3 6 8 10 11 10 2 0 4 -4 4 -10z"/>
<path d="M1340 970 l0 -50 51 0 c62 0 89 13 89 45 0 34 -36 55 -92 55 l-48 0
0 -50z m94 5 c6 -16 -28 -40 -44 -30 -6 3 -10 15 -10 26 0 23 45 27 54 4z"/>
<path d="M1507 1002 c-23 -25 -21 -59 2 -72 47 -25 121 -3 121 36 0 46 -90 73
-123 36z m73 -31 c0 -24 -25 -34 -40 -16 -15 18 -5 35 21 35 12 0 19 -7 19
-19z"/>
<path d="M375 841 c-66 -41 -95 -92 -95 -167 l0 -44 -100 0 c-105 0 -149 12
-169 47 -7 13 -10 -89 -11 -329 l0 -348 830 0 830 0 -1 383 c0 280 -3 374 -11
352 -24 -68 -83 -105 -168 -105 l-50 0 0 43 c-1 58 -30 119 -76 153 -33 26
-46 29 -109 29 -63 0 -76 -3 -109 -29 -46 -34 -75 -95 -76 -153 l0 -43 -208 0
-208 0 -1 49 c-1 65 -35 126 -89 157 -52 30 -135 33 -179 5z m149 -97 c57 -58
17 -154 -64 -154 -30 0 -44 6 -64 31 -35 41 -34 83 3 120 39 38 88 40 125 3z
m767 16 c29 -16 51 -67 44 -101 -20 -90 -160 -90 -180 0 -7 33 14 84 42 100
23 13 69 14 94 1z"/>
<path d="M937 853 c-10 -9 -9 -23 2 -23 5 0 11 7 15 15 5 15 -5 20 -17 8z"/>
<path d="M740 810 c0 -5 15 -10 33 -10 l32 -1 -35 -29 c-44 -36 -32 -52 35
-48 55 3 77 28 25 28 l-32 0 31 26 c17 14 31 30 31 35 0 5 -27 9 -60 9 -33 0
-60 -4 -60 -10z"/>
<path d="M872 773 l3 -48 58 -3 c46 -2 57 0 57 13 0 11 -11 15 -37 16 -28 1
-31 3 -13 6 40 7 48 23 12 23 -18 0 -32 5 -32 10 0 6 16 10 35 10 19 0 35 5
35 10 0 6 -27 10 -61 10 l-60 0 3 -47z"/>
</g>
</svg>
