<?xml version="1.0" standalone="no"?>
<!DOCTYPE svg PUBLIC "-//W3C//DTD SVG 20010904//EN"
 "http://www.w3.org/TR/2001/REC-SVG-20010904/DTD/svg10.dtd">
<svg version="1.0" xmlns="http://www.w3.org/2000/svg"
 width="166.000000pt" height="196.000000pt" viewBox="0 0 166.000000 196.000000"
 preserveAspectRatio="xMidYMid meet">

<g transform="translate(0.000000,196.000000) scale(0.100000,-0.100000)"
fill="#000000" stroke="none">
<path d="M745 1437 c-67 -32 -192 -126 -292 -220 -55 -52 -93 -79 -120 -86
-21 -5 -67 -17 -103 -26 -75 -19 -119 -44 -155 -86 -22 -27 -25 -39 -25 -113
0 -70 -3 -86 -20 -101 -29 -26 -36 -80 -17 -121 19 -39 27 -42 165 -47 l102
-4 0 43 c0 54 14 91 48 127 40 42 75 57 133 57 102 0 180 -77 181 -177 l0 -48
209 -1 209 -1 0 41 c1 57 31 118 76 152 33 26 46 29 109 29 63 0 76 -3 109
-29 46 -34 75 -95 76 -154 l0 -43 48 6 c102 13 111 16 136 46 14 16 30 46 36
67 20 74 8 291 -21 364 -20 50 -266 240 -399 309 l-65 34 -185 3 c-177 2 -187
1 -235 -21z m175 -191 l0 -123 -67 -7 c-38 -3 -140 -8 -228 -11 l-160 -6 60
57 c84 79 182 158 235 188 34 19 59 26 103 26 l57 0 0 -124z m294 84 c136 -57
223 -130 200 -168 -12 -18 -81 -25 -303 -33 l-94 -3 1 120 c0 65 1 121 1 123
2 13 130 -12 195 -39z m-1031 -346 l25 -35 22 35 c15 25 29 36 46 36 22 0 24
-4 24 -50 0 -43 -3 -50 -19 -50 -14 0 -21 8 -23 28 l-4 27 -14 -27 c-7 -16
-21 -28 -31 -28 -10 0 -25 12 -33 28 l-15 27 -1 -27 c0 -23 -4 -28 -25 -28
-23 0 -25 4 -25 43 0 24 3 47 7 50 16 17 44 4 66 -29z m247 21 c0 -10 -12 -15
-37 -17 -37 -1 -37 -1 -5 -5 41 -5 42 -23 1 -23 -17 0 -28 -4 -24 -10 3 -5 22
-10 41 -10 19 0 34 -4 34 -10 0 -6 -27 -10 -60 -10 l-60 0 0 50 0 50 55 0 c42
0 55 -3 55 -15z m131 5 c34 -19 22 -32 -21 -25 -32 5 -41 4 -46 -10 -10 -24
13 -34 47 -22 33 13 47 4 29 -18 -14 -17 -72 -20 -101 -5 -23 13 -25 47 -2 72
18 20 64 24 94 8z m160 -37 c25 -41 27 -49 13 -51 -9 -2 -21 1 -27 7 -14 14
-67 15 -67 1 0 -5 -11 -10 -25 -10 l-25 0 32 50 c19 28 41 50 51 50 10 0 30
-20 48 -47z m120 15 l28 -33 1 33 c0 25 4 32 20 32 17 0 20 -7 20 -50 0 -46
-2 -50 -24 -50 -15 0 -34 12 -50 31 l-26 31 0 -31 c0 -24 -4 -31 -20 -31 -17
0 -20 7 -20 50 0 45 2 50 22 50 12 0 34 -14 49 -32z m129 -18 c0 -43 -3 -50
-20 -50 -17 0 -20 7 -20 50 0 43 3 50 20 50 17 0 20 -7 20 -50z m131 40 c32
-18 21 -31 -23 -28 -32 2 -43 -1 -46 -13 -4 -20 27 -34 42 -19 12 12 46 14 46
2 0 -29 -70 -43 -111 -22 -23 13 -25 47 -2 72 18 20 64 24 94 8z m160 -37 c25
-41 27 -49 13 -51 -9 -2 -21 1 -27 7 -14 14 -67 15 -67 1 0 -5 -11 -10 -25
-10 l-24 0 31 50 c40 64 59 64 99 3z m197 31 c27 -19 29 -60 3 -74 -11 -5 -42
-10 -70 -10 l-51 0 0 50 0 50 48 0 c27 0 57 -7 70 -16z m152 -4 c24 -24 25
-38 3 -62 -34 -38 -123 -15 -123 32 0 45 84 66 120 30z m-656 -155 c-6 -16
-24 -21 -24 -7 0 11 11 22 21 22 5 0 6 -7 3 -15z m-94 -34 c0 -5 -15 -21 -32
-35 l-33 -26 33 0 c34 0 44 -16 15 -23 -10 -3 -36 -4 -58 -2 -46 2 -48 15 -7
50 l27 24 -32 1 c-18 0 -33 5 -33 10 0 6 27 10 60 10 33 0 60 -4 60 -9z m130
-1 c0 -5 -16 -10 -35 -10 -19 0 -35 -4 -35 -10 0 -5 14 -10 32 -10 36 0 28
-16 -12 -23 -18 -3 -15 -5 13 -6 38 -1 51 -16 20 -24 -15 -4 -56 -3 -93 2 -5
0 -10 21 -10 46 l0 45 60 0 c33 0 60 -4 60 -10z"/>
<path d="M660 970 c0 -5 7 -10 16 -10 8 0 12 5 9 10 -3 6 -10 10 -16 10 -5 0
-9 -4 -9 -10z"/>
<path d="M1200 970 c0 -5 7 -10 16 -10 8 0 12 5 9 10 -3 6 -10 10 -16 10 -5 0
-9 -4 -9 -10z"/>
<path d="M1380 965 c0 -29 29 -35 50 -10 16 19 4 35 -26 35 -19 0 -24 -5 -24
-25z"/>
<path d="M1534 979 c-3 -6 1 -18 9 -27 13 -12 19 -13 31 -3 8 7 12 19 9 27 -6
17 -39 19 -49 3z"/>
<path d="M399 741 c-20 -20 -29 -39 -29 -61 0 -44 47 -90 93 -90 79 0 118 97
61 154 -37 37 -86 35 -125 -3z"/>
<path d="M1197 759 c-28 -16 -49 -67 -42 -100 20 -90 160 -90 180 0 7 34 -15
85 -44 101 -25 13 -71 12 -94 -1z"/>
</g>
</svg>
